<?xml version="1.0" encoding="UTF-8"?>
<!-- Generated by Pixelmator Pro 3.6.16 -->
<svg width="6277" height="6377" viewBox="0 0 6277 6377" xmlns="http://www.w3.org/2000/svg">
    <g id="Livello-1">
        <path id="Percorso" fill="#161a1d" stroke="none" d="M 5348.781738 6376.59668 L 827.274902 6376.59668 C 316.991333 6376.59668 -100.513428 5959.091797 -100.513428 5448.808594 L -100.513428 927.301758 C -100.513428 417.018066 316.991333 -0.486816 827.274902 -0.486816 L 5348.781738 -0.486816 C 5859.064941 -0.486816 6276.569824 417.018066 6276.569824 927.301758 L 6276.569824 5448.808594 C 6276.569824 5959.091797 5859.064941 6376.59668 5348.781738 6376.59668 Z"/>
        <path id="path1" fill="#f5f3f4" stroke="none" d="M 2994.719482 1200.731934 L 1546.430176 5062.837402 C 1518.348145 5137.722656 1446.759766 5187.333008 1366.782227 5187.333008 L 715.145874 5187.333008 C 581.185059 5187.333008 488.46106 5053.532227 535.497803 4928.101563 L 1983.787354 1065.996094 C 2011.869385 991.11084 2083.457764 941.5 2163.435059 941.5 L 2815.071777 941.5 C 2949.032471 941.5 3041.756348 1075.300781 2994.719482 1200.731934 Z"/>
        <path id="path2" fill="#f5f3f4" stroke="none" d="M 3177.94873 1200.330078 L 4626.460938 5063.030273 C 4654.499512 5137.799316 4725.977539 5187.333008 4805.830566 5187.333008 L 5458.102539 5187.333008 C 5591.855469 5187.333008 5684.436035 5053.740234 5637.47168 4928.50293 L 4188.959473 1065.803223 C 4160.920898 991.03418 4089.443848 941.5 4009.589844 941.5 L 3357.317871 941.5 C 3223.564941 941.5 3130.984863 1075.093262 3177.94873 1200.330078 Z"/>
        <g id="Gruppo">
            <path id="path3" fill="#161a1d" stroke="none" d="M 2815.186279 5312.333496 L 2163.379639 5312.333496 C 2032.070801 5312.333496 1912.871094 5229.728516 1866.765137 5106.779297 L 1142.591064 3175.646973 C 1115.690918 3103.920898 1115.690918 3024.912598 1142.591064 2953.184082 L 1866.765137 1022.054199 C 1912.871094 899.10498 2032.070801 816.5 2163.379639 816.5 L 2815.186279 816.5 C 2919.058105 816.5 3016.39502 867.470703 3075.560547 952.84668 C 3134.725586 1038.220215 3148.271484 1147.255859 3111.800781 1244.515137 L 2438.131592 3040.966797 C 2432.459229 3056.089355 2432.459229 3072.744141 2438.131592 3087.864258 L 3111.800781 4884.318359 C 3148.271484 4981.575684 3134.725586 5090.613281 3075.560547 5175.984863 C 3016.39502 5261.36084 2919.060059 5312.333496 2815.186279 5312.333496 Z M 2163.379639 1066.5 C 2135.696289 1066.5 2110.568115 1083.915527 2100.847168 1109.834961 L 1376.673096 3040.966797 C 1371.000977 3056.089355 1371.000977 3072.744141 1376.673096 3087.864258 L 2100.847168 5019.002441 C 2110.565918 5044.917969 2135.696289 5062.333008 2163.379639 5062.333008 L 2815.186279 5062.333008 C 2845.614502 5062.333008 2862.63916 5044.324219 2870.079346 5033.589844 C 2877.517578 5022.855469 2888.4021 5000.589844 2877.718994 4972.103027 L 2204.049561 3175.646973 C 2177.14917 3103.920898 2177.14917 3024.912598 2204.049561 2953.184082 L 2877.718994 1156.734375 C 2888.4021 1128.243164 2877.517578 1105.979492 2870.079346 1095.243652 C 2862.63916 1084.509277 2845.614502 1066.5 2815.186279 1066.5 L 2163.379639 1066.5 Z"/>
            <path id="path4" fill="#e5383b" stroke="none" d="M 2815.186768 941.5 L 2163.379883 941.5 C 2083.435547 941.5 2011.876953 991.090332 1983.806641 1065.944336 L 1259.63208 2997.07666 C 1243.350586 3040.494141 1243.350586 3088.339355 1259.63208 3131.756836 L 1983.806641 5062.888672 C 2011.876953 5137.743164 2083.435547 5187.333008 2163.379883 5187.333008 L 2815.186768 5187.333008 C 2949.091797 5187.333008 3041.777344 5053.587891 2994.76001 4928.208984 L 2321.090576 3131.756836 C 2304.808838 3088.339355 2304.808838 3040.494141 2321.090576 2997.07666 L 2994.76001 1200.624023 C 3041.777344 1075.245117 2949.091797 941.5 2815.186768 941.5 Z"/>
        </g>
        <path id="path5" fill="none" stroke="none" d="M 2815.186768 941.5 L 2163.379883 941.5 C 2083.435547 941.5 2011.876953 991.090332 1983.806641 1065.944336 L 1259.63208 2997.07666 C 1243.350586 3040.494141 1243.350586 3088.339355 1259.63208 3131.756836 L 1983.806641 5062.888672 C 2011.876953 5137.743164 2083.435547 5187.333008 2163.379883 5187.333008 L 2815.186768 5187.333008 C 2949.091797 5187.333008 3041.777344 5053.587891 2994.76001 4928.208984 L 2321.090576 3131.756836 C 2304.808838 3088.339355 2304.808838 3040.494141 2321.090576 2997.07666 L 2994.76001 1200.624023 C 3041.777344 1075.245117 2949.091797 941.5 2815.186768 941.5 Z"/>
    </g>
</svg>
